<svg width="45" height="45" viewBox="0 0 45 45" fill="none" xmlns="http://www.w3.org/2000/svg">
<g clip-path="url(#clip0_1_70)">
<path d="M23.9067 44.9999H21.0886C20.5391 44.9319 19.9896 44.8733 19.4447 44.7948C14.9346 44.1491 10.9553 42.3339 7.56067 39.2987C3.69521 35.8346 1.27635 31.5362 0.35226 26.4198C0.200788 25.5878 0.11742 24.744 0 23.9061V21.0936C0.0986327 20.3413 0.171432 19.5854 0.299419 18.8389C1.09553 14.1585 3.14803 10.1085 6.48158 6.72996C9.84801 3.31746 13.8978 1.17644 18.6251 0.345581C19.4471 0.20144 20.269 0.111206 21.091 -0.00598145H23.909C24.6758 0.0936279 25.4472 0.163941 26.2081 0.298707C32.038 1.33464 36.8017 4.1823 40.3889 8.88621C44.1464 13.8081 45.5871 19.4014 44.7898 25.535C44.2027 30.0386 42.3557 34.003 39.3345 37.3932C35.8671 41.2839 31.5589 43.7143 26.4183 44.6436C25.5881 44.8007 24.7451 44.885 23.9067 44.9999ZM2.11356 22.4671C2.10064 33.6971 11.223 42.8577 22.4507 42.8905C33.6784 42.9233 42.8817 33.7698 42.8947 22.5303C42.9076 11.2909 33.7794 2.13972 22.5575 2.10925C11.3075 2.08347 2.12178 11.2311 2.11356 22.4671Z" fill="white"/>
<path d="M22.5024 13.2328H32.7836C34.6177 13.2328 35.6393 14.2476 35.6405 16.0863C35.6405 20.3629 35.6405 24.639 35.6405 28.9148C35.6405 30.7406 34.6095 31.7742 32.7801 31.7754C25.9267 31.7754 19.0729 31.7754 12.2187 31.7754C10.387 31.7754 9.36307 30.7418 9.36072 28.9113C9.36072 24.6347 9.36072 20.3586 9.36072 16.0828C9.36072 14.2511 10.387 13.2328 12.2211 13.2328H22.5024ZM11.4708 16.4062V28.8597C11.4708 29.5804 11.5588 29.6683 12.2833 29.6683H32.7073C33.4482 29.6683 33.5293 29.5828 33.5293 28.8269V16.4285C33.3238 16.5832 33.2075 16.6629 33.096 16.7543L23.3666 24.4804C22.6961 25.0125 22.3098 25.0113 21.6475 24.4804L15.0121 19.207L11.4708 16.4062ZM13.6278 15.3597C13.6629 15.4146 13.7021 15.4667 13.7452 15.5156C16.5883 17.775 19.4303 20.0355 22.271 22.2972C22.4953 22.4765 22.6233 22.3804 22.7947 22.2433C25.5549 20.0449 28.3174 17.8488 31.0822 15.6551C31.175 15.5812 31.2572 15.4945 31.404 15.3597H13.6278Z" fill="white"/>
</g>
<defs>
<clipPath id="clip0_1_70">
<rect width="45" height="45" fill="white"/>
</clipPath>
</defs>
</svg>
