<svg width="703" height="171" viewBox="0 0 703 171" fill="none" xmlns="http://www.w3.org/2000/svg">
<g clip-path="url(#clip0_1_4)">
<path d="M84.9702 -4.72353e-05C67.5963 -0.0331549 50.6076 5.11268 36.1776 14.7791C51.2717 5.95992 68.6709 1.87693 86.117 3.05983C103.563 4.24273 120.25 10.637 134.013 21.4127C127.409 28.3609 120.098 34.6019 112.197 40.0344C104.062 33.1927 94.5858 28.1236 84.3759 25.1519C74.166 22.1802 63.4474 21.3712 52.9065 22.7769C54.4371 22.6859 55.9792 22.6348 57.5326 22.6348C76.551 22.6318 94.9337 29.475 109.312 41.9102C103.945 45.3854 98.1818 48.2094 92.1454 50.3228C92.1454 50.3228 99.8157 50.323 111.845 44.1839C120.58 52.3684 127.41 62.3694 131.851 73.4806C123.062 79.5603 113.904 85.0903 104.43 90.0389C114.258 86.2279 123.82 81.7653 133.052 76.6809C136.148 85.4918 137.726 94.7637 137.717 104.102C137.717 106.449 137.609 108.769 137.416 111.065C132.667 113.832 127.675 116.159 122.502 118.017C127.497 116.996 132.401 115.572 137.165 113.759C135.927 124.548 132.551 134.982 127.236 144.454C133.526 134.939 137.68 124.177 139.413 112.907C147.721 109.632 157.912 104.488 167.141 96.6781C165.882 112.963 160.066 128.567 150.359 141.71C140.651 154.853 127.442 165.006 112.237 171.011C132.08 164.524 148.958 151.183 159.84 133.383C170.722 115.583 174.896 94.4911 171.612 73.8937C168.327 53.2964 157.8 34.5433 141.92 21.0021C126.041 7.46084 105.849 0.0184122 84.9702 0.0113324V-4.72353e-05ZM114.997 42.5127C121.694 38.7212 129.512 33.0938 137.979 24.7379C145.89 31.7325 152.468 40.1003 157.394 49.4362C155.158 53.0514 149.194 60.8558 134.793 71.3945C130.449 60.404 123.683 50.5323 114.997 42.5127ZM136.113 74.9699C145.399 69.5755 154.634 63.0614 160.512 55.9845C164.97 66.4957 167.308 77.7823 167.391 89.1977C163.141 92.9891 152.352 102.198 139.846 109.661C140.179 106.671 140.346 103.665 140.346 100.657C140.355 91.9207 138.925 83.2424 136.113 74.9699Z" fill="white"/>
<path d="M123.504 47.1397H123.549C122.411 47.2477 119.668 45.3264 118.525 44.866C116.818 44.1555 115.065 43.5529 113.318 42.9446C109.605 41.5843 105.749 40.6518 101.824 40.1651C93.9358 39.2885 85.9536 40.4268 78.6257 43.4734C68.4689 47.7536 60.1898 55.4786 50.6305 60.9525C44.3349 64.5635 37.4963 67.1337 30.3794 68.5637C26.6922 69.3027 22.6409 69.655 19.3691 67.802C16.6037 66.2274 14.817 63.2546 14.174 60.1339C13.531 57.0132 13.8383 53.7846 14.4813 50.6696C16.9592 38.8693 23.7055 28.396 33.4293 21.2535C21.5655 29.8936 13.2124 41.8817 11.9321 56.8427C11.5736 61.0377 11.8582 65.5056 14.174 69.0185C16.4899 72.5314 20.5355 74.5834 24.6779 75.1632C28.8203 75.743 33.0481 74.9699 37.0425 73.7251C47.5863 70.4452 56.8042 63.9992 66.1701 58.1444C75.536 52.2896 85.6018 46.8271 96.6121 45.8892C75.4962 51.1017 59.3477 68.3135 38.9658 75.8964C34.6242 77.5107 30.0153 78.6874 25.3949 78.3691C11.6021 77.4141 7.95475 63.4649 10.1511 51.7382C11.6135 43.9507 15.4657 36.8001 19.9495 30.2631C14.7999 37.6527 9.94059 45.5026 8.19373 54.3246C6.44687 63.1466 8.37012 73.1679 15.0787 79.1648C25.5599 88.5268 41.9872 85.8326 53.4698 80.0971C63.0007 75.3337 71.5245 68.308 80.7368 62.9477C93.9207 55.2683 108.123 48.5551 123.504 47.1397Z" fill="url(#paint0_linear_1_4)"/>
<path d="M154.839 72.7133C147.647 68.3876 138.651 66.1252 130.371 65.6989C114.946 64.9031 103.218 72.4688 91.0017 80.8872C74.4265 92.3069 56.8042 102.777 37.3384 107.91C32.2173 109.252 26.9824 110.224 21.7134 109.968C16.4444 109.712 11.1298 108.155 7.0102 104.852C10.5494 107.694 12.8369 110.622 17.1784 112.509C21.7918 114.431 26.7747 115.307 31.7678 115.072C40.8037 114.765 49.538 111.599 57.6919 107.91C68.2129 103.153 77.8576 97.1728 87.6218 91.0735C92.4527 88.0552 97.238 84.9572 102.24 82.206C106.792 79.6993 112.078 77.0902 117.119 76.0216C100.453 87.2878 83.229 97.7866 65.6979 107.66C64.3948 108.393 63.0918 109.127 61.7489 109.798C51.2905 115.021 28.5358 122.058 16.763 115.141C4.99021 108.223 0.466594 102.254 0.0227661 91.8351C0.312961 98.5994 2.13947 105.432 5.75268 111.162C14.4756 125.077 30.7891 126.509 45.7768 124.236C78.2673 119.33 100.92 93.0743 129.421 79.3013C136.249 76.0044 143.994 72.4803 151.715 72.4405C152.478 72.4803 154.133 72.287 154.839 72.7133Z" fill="url(#paint1_linear_1_4)"/>
<path d="M10.2422 133.62C13.4912 140.333 17.2069 146.125 23.4489 150.565C37.4067 160.507 54.8639 158.08 70.3922 153.504C85.1865 149.144 98.5809 140.873 111.105 132.04C124.038 122.911 137.37 114.35 151.448 107.029C160.552 102.3 172.66 95.5015 183.386 96.8543C183.386 96.8543 158.281 83.4338 139.971 92.3069C105.523 109.019 75.6328 140.35 35.7566 143.715C34.6186 143.812 33.4236 143.886 32.2515 143.926C26.7947 144.125 20.7404 143.42 17.0475 139.378C35.2558 157.943 68.8729 143.261 86.6146 132.262C102.775 122.235 119.048 111.952 136.118 103.499C138.093 102.522 140.17 101.362 142.332 100.907C126.297 112.577 108.226 121.103 91.8552 132.262C91.8552 132.262 52.3603 159.171 26.4703 148.979C22.1402 147.342 14.1627 141.72 10.2422 133.62Z" fill="url(#paint2_linear_1_4)"/>
<path d="M218.392 84.1613H248.02L248.504 90.1639C247.13 88.7239 244.018 88.0039 239.166 88.0039H227.433V104.71H242.336L242.813 110.713C241.444 109.269 238.332 108.549 233.476 108.553H227.433V129.385H240.207C245.109 129.385 248.221 128.688 249.545 127.294L249.061 133.228H218.392V84.1613Z" fill="white"/>
<path d="M274.058 97.5535C279.046 97.5535 282.286 99.543 283.776 103.522C286.663 99.543 289.96 97.5535 293.666 97.5535C296.757 97.5535 299.263 98.48 301.182 100.333C302.15 101.274 302.91 102.407 303.412 103.66C303.915 104.912 304.15 106.255 304.102 107.603V133.256H295.242V108.393C295.263 107.652 295.132 106.913 294.858 106.223C294.584 105.533 294.173 104.906 293.649 104.38C292.566 103.359 291.138 102.783 289.648 102.767C288.159 102.751 286.719 103.297 285.614 104.295C284.557 105.399 283.96 106.865 283.947 108.393V133.256H275.19V108.393C275.265 107.605 275.175 106.81 274.924 106.059C274.674 105.307 274.269 104.616 273.735 104.031C273.202 103.445 272.552 102.977 271.827 102.656C271.102 102.336 270.318 102.17 269.526 102.17C268.733 102.17 267.949 102.336 267.224 102.656C266.499 102.977 265.849 103.445 265.316 104.031C264.783 104.616 264.378 105.307 264.127 106.059C263.877 106.81 263.786 107.605 263.861 108.393V133.256H255.036V98.2925H263.861V103.334C266.657 99.4804 270.056 97.5535 274.058 97.5535Z" fill="white"/>
<path d="M319.721 85.0481C320.224 85.4811 320.627 86.0188 320.9 86.6237C321.173 87.2286 321.311 87.8859 321.303 88.5495C321.309 89.2137 321.174 89.8717 320.907 90.4801C320.64 91.0884 320.248 91.6336 319.755 92.0796C318.721 93.0303 317.368 93.558 315.963 93.558C314.557 93.558 313.204 93.0303 312.17 92.0796C311.682 91.6308 311.293 91.0859 311.027 90.4794C310.761 89.8728 310.623 89.2176 310.623 88.5552C310.623 87.8929 310.761 87.2378 311.027 86.6312C311.293 86.0247 311.682 85.4798 312.17 85.031C312.679 84.5502 313.277 84.1742 313.931 83.9245C314.586 83.6749 315.282 83.5564 315.982 83.5758C316.672 83.559 317.359 83.6807 318.001 83.9336C318.643 84.1864 319.228 84.5654 319.721 85.0481ZM311.516 98.2868H320.341V133.239H311.516V98.2868Z" fill="white"/>
<path d="M347.739 97.5536C348.462 97.55 349.184 97.5956 349.901 97.69V105.614C347.682 103.67 345.427 102.698 343.136 102.698C342.327 102.677 341.522 102.817 340.768 103.11C340.014 103.403 339.325 103.842 338.743 104.403C338.168 104.949 337.715 105.61 337.414 106.343C337.112 107.075 336.967 107.863 336.99 108.655V133.211H328.171V98.2926H336.99V103.3C339.942 99.4692 343.524 97.5536 347.739 97.5536Z" fill="white"/>
<path d="M368.991 97.6104C374.257 97.6104 378.05 98.6335 380.372 100.68C382.693 102.726 383.848 106.218 383.837 111.156V124.946C383.837 129.933 384.626 132.951 386.204 134.001L375.011 133.245V131.358C371.717 133.12 368.034 134.029 364.297 134.001C356.995 134.001 353.346 130.742 353.349 124.224C353.349 120.056 355.056 116.969 358.47 114.964C361.884 112.96 366.37 111.942 371.927 111.912C373.065 111.912 374.084 111.946 374.983 112.014V109.82C374.983 106.387 374.435 104.089 373.339 102.925C372.235 101.788 370.67 101.174 368.633 101.174C365.238 101.169 361.948 102.347 359.33 104.505V99.1508C362.451 98.1423 365.71 97.6227 368.991 97.6104ZM372.081 114.311C369.27 114.311 367.023 115.203 365.355 116.988C363.649 118.841 362.746 121.293 362.846 123.809C362.846 126.14 363.442 127.889 364.633 129.056C365.236 129.637 365.949 130.092 366.731 130.392C367.513 130.693 368.347 130.834 369.185 130.807C371.7 130.807 373.633 129.959 374.983 128.266V114.515C374.021 114.384 373.052 114.316 372.081 114.311Z" fill="white"/>
<path d="M403.946 86.9069V98.2754H412.424L412.873 104.176C412.094 102.76 410.762 102.05 408.89 102.05H403.946V133.228H395.154V102.05H388.941C396.516 97.1006 401.518 92.053 403.946 86.9069Z" fill="white"/>
<path d="M433.022 97.5535C435.061 97.5085 437.088 97.8897 438.971 98.6728C440.855 99.4559 442.553 100.624 443.958 102.101C446.898 105.132 448.37 108.998 448.374 113.697H425.198C425.13 114.932 425.096 115.927 425.096 116.681C425.096 120.933 426.092 124.343 428.083 126.913C430.075 129.482 432.935 130.763 436.664 130.755C439.915 130.755 443.075 129.656 446.143 127.458V132.745C443.137 133.458 440.061 133.84 436.971 133.882C429.805 133.882 424.426 132.19 420.834 128.806C417.359 125.44 415.62 121.083 415.616 115.732C415.557 113.346 415.983 110.973 416.868 108.756C417.753 106.539 419.079 104.525 420.766 102.834C424.248 99.3137 428.333 97.5535 433.022 97.5535ZM432.817 100.64C431.197 100.64 429.756 101.53 428.493 103.312C427.043 105.408 426.072 107.797 425.648 110.309H439.554C439.19 107.818 438.299 105.433 436.942 103.312C435.729 101.549 434.353 100.667 432.817 100.663V100.64Z" fill="white"/>
<path d="M463.857 97.5535C467.11 97.5235 470.303 98.4271 473.058 100.157V105.512C470.402 102.332 467.724 100.742 465.023 100.742C464.382 100.711 463.741 100.81 463.139 101.034C462.538 101.257 461.988 101.601 461.524 102.044C461.097 102.464 460.761 102.966 460.536 103.52C460.31 104.075 460.201 104.669 460.215 105.267C460.215 106.961 461.315 108.528 463.515 109.968L469.205 113.811C473.143 116.463 475.112 119.629 475.112 123.309C475.112 126.579 473.974 129.141 471.698 130.994C469.422 132.961 466.332 133.944 462.428 133.944C458.949 134.014 455.513 133.161 452.471 131.472V126.191C455.695 129.257 458.751 130.79 461.637 130.79C463.206 130.836 464.729 130.262 465.877 129.192C466.418 128.713 466.85 128.124 467.145 127.464C467.439 126.804 467.589 126.089 467.584 125.367C467.584 123.127 466.066 121.103 463.031 119.296L458.434 116.482C454.451 114.061 452.459 110.872 452.459 106.916C452.418 105.642 452.665 104.376 453.182 103.212C453.699 102.047 454.474 101.014 455.447 100.191C457.408 98.4326 460.211 97.5535 463.857 97.5535Z" fill="white"/>
<path d="M480.608 84.1613H489.638V129.437H500.353C505.227 129.437 508.351 128.717 509.725 127.277L509.104 133.245H480.608V84.1613Z" fill="white"/>
<path d="M523.631 85.0481C524.134 85.4816 524.535 86.0197 524.807 86.6246C525.08 87.2295 525.216 87.8864 525.207 88.5496C525.214 89.2133 525.081 89.8711 524.815 90.4795C524.549 91.0879 524.157 91.6333 523.665 92.0796C522.63 93.0295 521.276 93.5566 519.87 93.5566C518.464 93.5566 517.11 93.0295 516.075 92.0796C515.589 91.6299 515.201 91.0847 514.936 90.4783C514.67 89.8718 514.533 89.2171 514.533 88.5552C514.533 87.8934 514.67 87.2388 514.936 86.6324C515.201 86.0259 515.589 85.4807 516.075 85.031C517.103 84.0611 518.474 83.5378 519.887 83.5758C520.578 83.5582 521.265 83.6796 521.909 83.9325C522.552 84.1854 523.137 84.5647 523.631 85.0481ZM515.415 98.2925H524.234V133.245H515.415V98.2925Z" fill="white"/>
<path d="M549.828 97.6105C552.919 97.579 556 97.9477 558.995 98.7075V104.022C556.719 101.828 553.754 100.731 550.101 100.731C548.607 100.669 547.125 101.026 545.823 101.762C544.522 102.499 543.453 103.585 542.738 104.898C541.1 107.679 540.28 111.31 540.28 115.789C540.28 120.268 541.1 123.91 542.738 126.714C543.454 128.026 544.522 129.112 545.824 129.848C547.125 130.585 548.607 130.942 550.101 130.88C553.743 130.88 556.708 129.782 558.995 127.584V132.904C555.999 133.661 552.918 134.03 549.828 134.001C543.717 134.001 539.002 132.281 535.683 128.84C532.364 125.399 530.704 121.041 530.704 115.766C530.704 110.529 532.364 106.19 535.683 102.749C539.002 99.308 543.717 97.5953 549.828 97.6105Z" fill="white"/>
<path d="M580.521 97.5535C582.56 97.5092 584.586 97.8908 586.469 98.6738C588.353 99.4569 590.051 100.624 591.457 102.101C594.397 105.133 595.867 108.998 595.867 113.697H572.691C572.623 114.932 572.589 115.927 572.589 116.681C572.589 120.933 573.584 124.343 575.576 126.913C577.568 129.482 580.43 130.763 584.162 130.755C587.413 130.755 590.571 129.656 593.636 127.458V132.745C590.632 133.459 587.558 133.84 584.47 133.882C577.308 133.882 571.929 132.19 568.333 128.806C564.858 125.441 563.118 121.083 563.115 115.732C563.054 113.346 563.479 110.972 564.364 108.755C565.249 106.538 566.576 104.524 568.264 102.834C571.724 99.3137 575.809 97.5535 580.521 97.5535ZM580.316 100.64C578.689 100.64 577.247 101.531 575.991 103.312C574.537 105.405 573.566 107.795 573.146 110.309H587.047C586.684 107.818 585.796 105.433 584.441 103.312C583.235 101.532 581.847 100.663 580.316 100.663V100.64Z" fill="white"/>
<path d="M647.266 97.5534C650.521 97.5226 653.716 98.4262 656.472 100.157V105.511C653.817 102.332 651.139 100.742 648.438 100.742C647.796 100.71 647.154 100.809 646.551 101.033C645.948 101.257 645.398 101.601 644.933 102.044C644.507 102.464 644.171 102.967 643.947 103.521C643.723 104.075 643.615 104.669 643.63 105.267C643.63 106.961 644.728 108.528 646.924 109.968L652.614 113.811C656.544 116.463 658.511 119.629 658.515 123.309C658.515 126.579 657.377 129.141 655.101 130.994C652.825 132.961 649.735 133.944 645.832 133.944C642.352 134.013 638.916 133.16 635.874 131.471V126.191C639.102 129.256 642.158 130.79 645.041 130.79C646.609 130.836 648.133 130.262 649.28 129.192C649.821 128.713 650.253 128.124 650.548 127.464C650.842 126.804 650.992 126.089 650.987 125.367C650.987 123.127 649.469 121.103 646.435 119.296L641.832 116.482C637.848 114.06 635.857 110.872 635.857 106.915C635.815 105.642 636.062 104.376 636.58 103.211C637.097 102.047 637.871 101.014 638.844 100.191C640.821 98.4325 643.628 97.5534 647.266 97.5534Z" fill="white"/>
<path d="M680.058 97.5535C682.096 97.5093 684.121 97.891 686.004 98.6741C687.886 99.4572 689.584 100.624 690.988 102.101C693.932 105.133 695.404 108.998 695.404 113.697H672.228C672.16 114.932 672.126 115.927 672.126 116.681C672.126 120.933 673.121 124.343 675.113 126.913C677.104 129.482 679.965 130.763 683.694 130.755C686.944 130.755 690.104 129.656 693.173 127.458V132.745C690.169 133.458 687.095 133.839 684.007 133.882C676.837 133.882 671.456 132.19 667.864 128.806C664.385 125.441 662.648 121.083 662.652 115.732C662.589 113.348 663.01 110.976 663.89 108.759C664.77 106.542 666.091 104.527 667.773 102.834C671.278 99.3137 675.373 97.5535 680.058 97.5535ZM679.847 100.64C678.227 100.64 676.786 101.531 675.523 103.312C674.073 105.408 673.102 107.797 672.678 110.309H686.584C686.221 107.818 685.333 105.433 683.978 103.312C682.749 101.549 681.376 100.667 679.858 100.663L679.847 100.64Z" fill="white"/>
<path d="M645.633 141.277C647.05 141.262 648.463 141.43 649.837 141.777V144.222C648.732 143.197 647.264 142.654 645.758 142.709C645.072 142.681 644.392 142.845 643.795 143.182C643.197 143.52 642.707 144.017 642.378 144.619C641.636 146.185 641.251 147.895 641.251 149.627C641.251 151.359 641.636 153.07 642.378 154.635C642.706 155.237 643.197 155.736 643.794 156.075C644.391 156.413 645.072 156.578 645.758 156.551C647.264 156.607 648.732 156.063 649.837 155.039V157.477C648.464 157.826 647.05 157.996 645.633 157.983C642.822 157.983 640.656 157.193 639.134 155.613C637.665 153.966 636.853 151.836 636.853 149.63C636.853 147.424 637.665 145.294 639.134 143.647C640.659 142.067 642.825 141.277 645.633 141.277Z" fill="white"/>
<path d="M665.064 143.687C666.541 145.302 667.36 147.411 667.36 149.599C667.36 151.786 666.541 153.895 665.064 155.51C664.362 156.278 663.507 156.892 662.554 157.312C661.602 157.731 660.572 157.948 659.531 157.948C658.489 157.948 657.459 157.731 656.507 157.312C655.554 156.892 654.699 156.278 653.997 155.51C652.522 153.895 651.704 151.788 651.704 149.602C651.704 147.415 652.522 145.308 653.997 143.693C654.697 142.922 655.551 142.307 656.503 141.886C657.456 141.464 658.486 141.247 659.528 141.247C660.569 141.247 661.599 141.464 662.552 141.886C663.504 142.307 664.358 142.922 665.058 143.693L665.064 143.687ZM659.545 142.664C658.6 142.664 657.792 143.34 657.121 144.693C656.453 146.243 656.108 147.912 656.108 149.599C656.108 151.286 656.453 152.955 657.121 154.504C657.792 155.857 658.6 156.533 659.545 156.533C660.489 156.533 661.309 155.857 662.003 154.504C662.671 152.955 663.016 151.286 663.016 149.599C663.016 147.912 662.671 146.243 662.003 144.693C661.343 143.34 660.529 142.664 659.562 142.664H659.545Z" fill="white"/>
<path d="M678.635 141.243C680.911 141.243 682.398 142.156 683.096 143.983C684.42 142.156 685.937 141.243 687.648 141.243C688.279 141.216 688.909 141.316 689.501 141.536C690.093 141.755 690.636 142.09 691.096 142.522C691.541 142.953 691.891 143.473 692.122 144.048C692.353 144.622 692.461 145.239 692.439 145.858V157.636H688.371V146.222C688.38 145.881 688.32 145.541 688.194 145.223C688.068 144.906 687.878 144.617 687.637 144.375C687.139 143.906 686.483 143.643 685.8 143.636C685.116 143.63 684.456 143.882 683.95 144.341C683.464 144.848 683.191 145.521 683.187 146.222V157.636H679.17V146.222C679.186 145.871 679.131 145.519 679.008 145.189C678.884 144.859 678.695 144.558 678.452 144.303C678.209 144.049 677.916 143.846 677.592 143.707C677.268 143.569 676.919 143.497 676.567 143.497C676.214 143.497 675.865 143.569 675.541 143.707C675.217 143.846 674.925 144.049 674.681 144.303C674.438 144.558 674.249 144.859 674.126 145.189C674.002 145.519 673.947 145.871 673.964 146.222V157.636H669.912V141.59H673.964V143.903C675.238 142.13 676.795 141.243 678.635 141.243Z" fill="white"/>
<path d="M630.753 143.096V107.967C630.753 104.81 629.769 102.296 627.8 100.424C626.835 99.4933 625.695 98.7628 624.446 98.275C623.197 97.7871 621.863 97.5516 620.522 97.5819C616.425 97.5819 612.911 99.4331 609.978 103.135V98.264H601.364V133.217H609.978V108.354C609.973 107.603 610.134 106.86 610.449 106.179C610.764 105.497 611.225 104.893 611.799 104.409C612.943 103.343 614.457 102.764 616.021 102.794C617.605 102.751 619.143 103.323 620.312 104.392C620.878 104.886 621.329 105.498 621.632 106.186C621.935 106.874 622.082 107.62 622.064 108.371V143.045C623.336 142.144 624.859 141.665 626.418 141.675C627.977 141.685 629.493 142.184 630.753 143.101V143.096Z" fill="white"/>
<path d="M630.571 148.052C630.287 147.034 629.644 146.153 628.76 145.572C627.876 144.991 626.812 144.75 625.764 144.892C624.715 145.035 623.754 145.553 623.058 146.349C622.363 147.145 621.979 148.166 621.979 149.223C621.979 150.28 622.363 151.301 623.058 152.098C623.754 152.894 624.715 153.412 625.764 153.555C626.812 153.697 627.876 153.456 628.76 152.875C629.644 152.294 630.287 151.413 630.571 150.394C630.814 149.633 630.814 148.814 630.571 148.052Z" fill="white"/>
<path d="M258.433 43.6894V53.3526L253.881 57.9C253.589 58.1959 253.241 58.4299 252.857 58.5881C252.472 58.7463 252.06 58.8256 251.645 58.821H231.16C217.191 58.821 214.807 47.9469 214.807 47.9469C214.807 47.9469 219.114 53.364 231.16 53.364H253.01V47.9867C253.01 46.0597 252.817 45.4458 251.474 45.4458L256.168 42.4899C256.383 42.3265 256.639 42.228 256.908 42.206C257.177 42.1839 257.447 42.2392 257.685 42.3654C257.923 42.4916 258.12 42.6834 258.253 42.918C258.385 43.1527 258.448 43.4203 258.433 43.6894ZM232.503 33.1564C232.506 32.6424 232.662 32.141 232.951 31.7156C233.24 31.2902 233.649 30.9598 234.125 30.7665C234.602 30.5732 235.126 30.5255 235.63 30.6295C236.133 30.7335 236.595 30.9845 236.956 31.3508C237.317 31.717 237.561 32.1821 237.658 32.687C237.754 33.192 237.698 33.7141 237.498 34.1873C237.297 34.6606 236.96 35.0636 236.53 35.3456C236.099 35.6275 235.595 35.7757 235.081 35.7712C234.392 35.7637 233.735 35.4845 233.252 34.9946C232.769 34.5047 232.5 33.8439 232.503 33.1564ZM239.047 33.1564C239.05 32.6424 239.206 32.141 239.495 31.7156C239.784 31.2902 240.192 30.9598 240.669 30.7665C241.146 30.5732 241.669 30.5255 242.173 30.6295C242.677 30.7335 243.139 30.9845 243.5 31.3508C243.861 31.717 244.105 32.1821 244.201 32.687C244.298 33.192 244.242 33.7141 244.041 34.1873C243.84 34.6606 243.504 35.0636 243.073 35.3456C242.643 35.6275 242.139 35.7757 241.624 35.7712C240.936 35.7637 240.279 35.4845 239.796 34.9946C239.313 34.5047 239.044 33.8439 239.047 33.1564Z" fill="white"/>
<path d="M271.264 62.1746C265.836 62.1746 264.299 60.333 264.299 56.1039V31.616C264.299 29.6947 264.106 29.0808 262.763 29.0808L267.452 26.1193C267.668 25.9502 267.929 25.8479 268.202 25.8247C268.476 25.8015 268.75 25.8585 268.992 25.9889C269.234 26.1192 269.432 26.3172 269.563 26.5584C269.693 26.7997 269.751 27.0737 269.728 27.3471V53.3299C269.722 56.1038 269.261 59.7133 271.264 62.1746Z" fill="white"/>
<path d="M275.958 58.7925V47.9924C275.958 46.0711 275.771 45.4572 274.422 45.4572L279.116 42.4956C279.334 42.3287 279.595 42.2284 279.868 42.2068C280.141 42.1851 280.415 42.243 280.656 42.3736C280.896 42.5041 281.094 42.7017 281.225 42.9423C281.356 43.1829 281.414 43.4562 281.392 43.7291V58.7925C281.392 68.0919 270.507 69.7119 270.507 69.7119C270.507 69.7119 275.958 66.8244 275.958 58.7925Z" fill="white"/>
<path d="M374.243 58.7925H287.242V31.616C287.242 29.6947 287.048 29.0808 285.705 29.0808L290.394 26.1193C290.61 25.9502 290.871 25.8479 291.145 25.8247C291.418 25.8015 291.693 25.8585 291.934 25.9889C292.176 26.1192 292.374 26.3172 292.505 26.5584C292.636 26.7997 292.693 27.0737 292.67 27.3471V53.3299H373.47L374.243 58.7925Z" fill="white"/>
<path d="M397.874 48.8393V58.7925H390.756C389.934 58.7925 389.134 58.5229 388.48 58.025L384.707 55.1829C383.325 57.2918 380.861 58.7925 376.32 58.7925H373.731C372.383 58.7925 292.107 57.9853 291.76 56.6779L290.798 53.3355H374.386C379.655 53.3355 380.85 53.5287 380.85 47.6114V38.6928H386.312C392.56 38.6928 397.874 43.1891 397.874 48.8393ZM392.56 50.9937C392.56 44.65 389.368 44.11 386.329 44.11V47.6114C386.39 49.5459 386.144 51.4778 385.601 53.3355H392.56V50.9937Z" fill="white"/>
<path d="M423.85 58.7925H411.155C405.232 58.7925 403.342 62.2542 403.342 62.2542C403.057 60.2036 402.929 58.1341 402.961 56.064C402.961 50.3002 405.385 45.8324 410.153 43.7633L406.694 40.8472V33.5429C406.694 31.6216 406.5 31.0077 405.152 31.0077L409.846 28.0462C410.062 27.8772 410.323 27.7748 410.597 27.7516C410.871 27.7285 411.145 27.7856 411.387 27.9159C411.628 28.0463 411.826 28.2441 411.957 28.4853C412.088 28.7266 412.145 29.0006 412.122 29.274V43.0754C413.77 42.66 415.464 42.4538 417.164 42.4616V31.616C417.164 29.6947 416.97 29.0808 415.622 29.0808L420.316 26.1193C420.532 25.9502 420.793 25.8479 421.067 25.8247C421.34 25.8015 421.615 25.8585 421.856 25.9889C422.098 26.1192 422.296 26.3172 422.427 26.5584C422.558 26.7997 422.615 27.0737 422.592 27.3471V47.8731H416.578C407.348 47.8731 408.424 54.2905 408.424 54.2905C408.424 54.2905 409.499 53.4038 413.232 53.3299H419.582C421.505 53.3299 422.12 53.1366 422.12 51.7951L425.084 56.5188C425.254 56.7352 425.357 56.9964 425.38 57.2703C425.403 57.5442 425.345 57.8189 425.214 58.0605C425.083 58.3021 424.884 58.5001 424.641 58.6301C424.399 58.7602 424.124 58.8167 423.85 58.7925ZM413.118 70.7863H411.195C409.722 70.7235 408.247 70.8516 406.808 71.1672C406.941 70.4216 407.3 69.7347 407.836 69.1991C408.372 68.6635 409.06 68.305 409.806 68.1716C406.694 66.1707 408.424 62.2542 412.27 62.2542C415.235 62.2542 415.462 65.0168 414.387 66.1707C413.505 64.6359 410.973 64.5962 410.347 65.9036C409.778 67.0404 410.808 68.0579 412.082 68.0579H415.041C415.176 68.0536 415.308 68.0867 415.425 68.1535C415.541 68.2204 415.637 68.3183 415.701 68.4364C415.764 68.5544 415.794 68.6879 415.786 68.8219C415.778 68.9558 415.733 69.085 415.656 69.1948L414.154 71.5366C414.131 70.9398 413.886 70.7863 413.118 70.7863Z" fill="white"/>
<path d="M437.978 62.1746C432.555 62.1746 431.013 60.333 431.013 56.1039V31.616C431.013 29.6947 430.826 29.0808 429.477 29.0808L434.171 26.1193C434.388 25.9502 434.648 25.8479 434.922 25.8247C435.196 25.8015 435.47 25.8585 435.712 25.9889C435.953 26.1192 436.152 26.3172 436.282 26.5584C436.413 26.7997 436.47 27.0737 436.447 27.3471V53.3299C436.442 56.1038 435.975 59.7133 437.978 62.1746Z" fill="white"/>
<path d="M445.66 49.9136C445.66 49.9136 444.584 55.3364 458.178 55.3364H465.911C466.328 55.3474 466.744 55.2732 467.132 55.1185C467.52 54.9639 467.873 54.7319 468.168 54.4367C468.464 54.1416 468.696 53.7894 468.851 53.4017C469.006 53.014 469.08 52.5989 469.069 52.1816V48.5324C469.069 46.6111 468.87 45.9972 467.527 45.9972L472.221 43.0357C472.437 42.8666 472.698 42.7642 472.972 42.7411C473.245 42.7179 473.52 42.7749 473.761 42.9053C474.003 43.0356 474.201 43.2336 474.332 43.4748C474.463 43.716 474.52 43.9901 474.497 44.2635V52.2215C474.497 58.5992 469.456 60.7934 462.724 60.7934H458.172C442.661 60.7934 445.66 49.9136 445.66 49.9136ZM459.009 38.3859C459.012 37.8719 459.168 37.3705 459.457 36.9451C459.746 36.5197 460.154 36.1893 460.631 35.996C461.108 35.8027 461.631 35.755 462.135 35.859C462.639 35.963 463.101 36.2142 463.462 36.5804C463.823 36.9466 464.067 37.4116 464.163 37.9165C464.26 38.4215 464.204 38.9436 464.003 39.4168C463.802 39.8901 463.466 40.2931 463.035 40.5751C462.605 40.857 462.101 41.0052 461.586 41.0007C460.899 40.9917 460.242 40.7121 459.76 40.2226C459.277 39.733 459.007 39.073 459.009 38.3859Z" fill="white"/>
<path d="M487.34 62.1746C481.917 62.1746 480.375 60.333 480.375 56.1039V31.616C480.375 29.6947 480.181 29.0808 478.839 29.0808L483.533 26.1193C483.749 25.9502 484.01 25.8479 484.284 25.8247C484.557 25.8015 484.832 25.8585 485.073 25.9889C485.315 26.1192 485.513 26.3172 485.644 26.5584C485.775 26.7997 485.832 27.0737 485.809 27.3471V53.3299C485.826 56.1038 485.337 59.7133 487.34 62.1746Z" fill="white"/>
<path d="M492.034 58.7925V47.7649C492.034 45.8437 491.84 45.2241 490.498 45.2241L495.192 42.2683C495.408 42.0992 495.669 41.9968 495.943 41.9737C496.216 41.9505 496.491 42.0077 496.732 42.138C496.974 42.2683 497.172 42.4661 497.303 42.7074C497.434 42.9486 497.491 43.2227 497.468 43.496V50.5674C497.468 52.8411 498.276 53.3356 500.159 53.3356L500.928 58.7925H499.926C499.041 58.7987 498.177 58.5151 497.468 57.9853V58.7925C497.468 68.092 486.577 69.712 486.577 69.712C486.577 69.712 492.034 66.8244 492.034 58.7925Z" fill="white"/>
<path d="M497.775 56.4108L496.7 53.3356H540.809V47.9583C540.809 46.0313 540.616 45.4174 539.273 45.4174L543.962 42.4616C544.178 42.2925 544.439 42.1901 544.713 42.167C544.986 42.1438 545.261 42.2008 545.502 42.3312C545.744 42.4615 545.942 42.6595 546.073 42.9007C546.203 43.1419 546.261 43.416 546.238 43.6894V53.3526L541.544 58.0422C541.303 58.2862 541.016 58.4797 540.699 58.6114C540.383 58.7432 540.043 58.8106 539.7 58.8096H500.398C499.312 58.7925 498.27 57.8717 497.775 56.4108ZM531.307 66.6708C531.31 66.1568 531.466 65.6555 531.755 65.2301C532.044 64.8047 532.453 64.4743 532.929 64.281C533.406 64.0877 533.93 64.04 534.433 64.144C534.937 64.248 535.399 64.4991 535.76 64.8654C536.121 65.2316 536.365 65.6966 536.462 66.2015C536.558 66.7064 536.502 67.2286 536.301 67.7018C536.101 68.1751 535.764 68.5781 535.334 68.86C534.903 69.142 534.399 69.2902 533.885 69.2857C533.196 69.2782 532.538 68.9992 532.054 68.5095C531.57 68.0198 531.3 67.3589 531.301 66.6708H531.307ZM537.845 66.6708C537.848 66.1568 538.004 65.6555 538.293 65.2301C538.582 64.8047 538.991 64.4743 539.467 64.281C539.944 64.0877 540.467 64.04 540.971 64.144C541.475 64.248 541.937 64.4991 542.298 64.8654C542.659 65.2316 542.903 65.6966 543 66.2015C543.096 66.7064 543.04 67.2286 542.839 67.7018C542.639 68.1751 542.302 68.5781 541.872 68.86C541.441 69.142 540.937 69.2902 540.423 69.2857C539.734 69.2782 539.076 68.9992 538.592 68.5095C538.108 68.0198 537.838 67.3589 537.839 66.6708H537.845Z" fill="white"/>
<path d="M586.194 53.1821C585.728 55.1128 585.07 56.9923 584.231 58.7925H546.505C545.871 58.8104 545.249 58.6101 544.745 58.2252C544.241 57.8403 543.884 57.2942 543.734 56.678L542.773 53.3356H559.143V31.616C559.143 29.6947 550.545 29.0808 549.197 29.0808L562.284 26.1193C562.5 25.9502 562.761 25.8479 563.035 25.8247C563.308 25.8015 563.583 25.8585 563.824 25.9889C564.066 26.1192 564.264 26.3172 564.395 26.5584C564.526 26.7997 564.583 27.0737 564.56 27.3471V46.452C575.075 34.5036 590.08 38.1529 586.194 53.1821ZM564.571 50.4536V53.3356H580.959C583.383 41.7283 574.153 41.4611 564.571 50.4536Z" fill="white"/>
<path d="M620.846 58.7925H616.129L610.667 53.3356V45.1899C610.667 44.7636 610.707 44.343 610.741 43.9565C608.51 48.646 604.089 48.3789 600.897 48.646L606.24 53.489C607.702 54.8362 608.818 55.6036 610.394 54.7566L607.509 58.7356C606.701 59.8725 604.704 59.81 603.469 58.6163L595.121 50.7378L596.43 46.5486C596.777 45.4117 598.24 44.7069 600.123 44.2749C602.934 43.5814 609.011 45.3491 611.503 41.0802C613.734 35.8962 620.084 35.8166 620.084 35.8166C620.084 35.8166 616.158 37.2377 616.158 45.2355V53.3811H620.141L620.846 58.7925ZM600.419 33.1564C600.422 32.6424 600.578 32.141 600.867 31.7156C601.156 31.2902 601.565 30.9598 602.041 30.7665C602.518 30.5732 603.042 30.5255 603.545 30.6295C604.049 30.7335 604.511 30.9845 604.872 31.3508C605.233 31.717 605.477 32.1821 605.574 32.687C605.67 33.192 605.614 33.7141 605.414 34.1873C605.213 34.6606 604.876 35.0636 604.446 35.3456C604.015 35.6275 603.511 35.7757 602.997 35.7712C602.308 35.7637 601.651 35.4845 601.168 34.9946C600.685 34.5047 600.416 33.8439 600.419 33.1564ZM606.963 33.1564C606.967 32.644 607.124 32.1445 607.412 31.7209C607.701 31.2973 608.108 30.9686 608.584 30.7764C609.059 30.5842 609.581 30.5371 610.084 30.6411C610.586 30.745 611.046 30.9954 611.406 31.3605C611.766 31.7256 612.009 32.189 612.106 32.6923C612.202 33.1956 612.147 33.716 611.947 34.188C611.748 34.66 611.412 35.0624 610.984 35.3442C610.556 35.626 610.053 35.7746 609.54 35.7712C608.852 35.7637 608.195 35.4845 607.712 34.9946C607.229 34.5047 606.96 33.8439 606.963 33.1564Z" fill="white"/>
<path d="M656.484 58.7925H631.862C630.4 58.812 628.982 58.2918 627.879 57.3316L626.417 58.7925H620.334C619.259 58.7925 618.223 57.8717 617.723 56.4109L616.641 53.3356H625.996V47.6513C625.996 45.73 625.837 45.1161 624.494 45.1161L629.148 42.1205C629.368 41.9536 629.633 41.8543 629.908 41.8349C630.184 41.8155 630.46 41.8768 630.701 42.0113C630.942 42.1458 631.139 42.3476 631.268 42.5921C631.396 42.8366 631.451 43.1132 631.424 43.3881V46.6509C641.928 34.4695 657.127 38.0847 653.206 53.1878L653.166 53.3413H655.55L656.484 58.7925ZM631.447 50.5674V53.3356H647.948C650.367 41.6544 641.058 41.4612 631.436 50.5674H631.447Z" fill="white"/>
<path d="M653.303 56.7575L652.068 53.347H682.641C679.756 51.3518 676.291 47.1966 674.447 43.4678C674.309 43.1662 674.086 42.9116 673.805 42.7349C673.524 42.5582 673.197 42.4672 672.865 42.473H667.522L674.868 38.0903C675.099 37.9443 675.358 37.8491 675.628 37.8108C675.899 37.7726 676.174 37.7923 676.436 37.8687C676.698 37.9451 676.941 38.0762 677.149 38.2537C677.356 38.4311 677.523 38.6506 677.639 38.8976C681.053 44.8149 686.681 53.347 692.03 53.347L690.323 56.8826C690.039 57.4657 689.595 57.9561 689.043 58.2964C688.491 58.6367 687.853 58.8128 687.204 58.8039H656.171C655.535 58.8207 654.911 58.6299 654.393 58.2606C653.876 57.8914 653.493 57.3637 653.303 56.7575ZM675.449 30.8146C675.453 30.3022 675.61 29.8025 675.898 29.3789C676.187 28.9553 676.594 28.6267 677.07 28.4345C677.545 28.2424 678.067 28.1953 678.57 28.2992C679.072 28.4032 679.532 28.6534 679.892 29.0185C680.252 29.3836 680.495 29.8471 680.592 30.3504C680.688 30.8536 680.633 31.3742 680.433 31.8462C680.234 32.3182 679.898 32.7205 679.47 33.0022C679.042 33.284 678.539 33.4326 678.026 33.4292C677.338 33.4203 676.682 33.1407 676.199 32.6511C675.717 32.1616 675.447 31.5016 675.449 30.8146Z" fill="white"/>
<path d="M697.577 58.7925V47.9924C697.577 46.0711 697.384 45.4572 696.041 45.4572L700.735 42.4956C700.953 42.3287 701.214 42.2284 701.487 42.2068C701.76 42.1851 702.034 42.243 702.275 42.3736C702.516 42.5041 702.713 42.7017 702.844 42.9423C702.975 43.1829 703.033 43.4562 703.011 43.7291V58.7925C703.011 68.0919 692.121 69.7119 692.121 69.7119C692.121 69.7119 697.577 66.8244 697.577 58.7925Z" fill="white"/>
</g>
<defs>
<linearGradient id="paint0_linear_1_4" x1="7.58489" y1="53.2673" x2="123.549" y2="53.2673" gradientUnits="userSpaceOnUse">
<stop stop-color="#3B8A47"/>
<stop offset="1" stop-color="#94C352"/>
</linearGradient>
<linearGradient id="paint1_linear_1_4" x1="5.72937e-06" y1="95.3935" x2="154.839" y2="95.3935" gradientUnits="userSpaceOnUse">
<stop stop-color="#2C3F96"/>
<stop offset="0.24" stop-color="#2D5AAA"/>
<stop offset="0.75" stop-color="#2E8FD2"/>
<stop offset="1" stop-color="#2EA4E1"/>
</linearGradient>
<linearGradient id="paint2_linear_1_4" x1="10.2422" y1="123.389" x2="183.386" y2="123.389" gradientUnits="userSpaceOnUse">
<stop stop-color="#3B8A47"/>
<stop offset="1" stop-color="#94C352"/>
</linearGradient>
<clipPath id="clip0_1_4">
<rect width="703" height="171" fill="white"/>
</clipPath>
</defs>
</svg>
