<svg width="45" height="45" viewBox="0 0 45 45" fill="none" xmlns="http://www.w3.org/2000/svg">
<g clip-path="url(#clip0_1_67)">
<path d="M44.9999 21.0906V23.9086C44.9343 24.444 44.8827 24.9806 44.8019 25.5137C44.1609 30.0413 42.3409 34.0358 39.2941 37.442C35.8323 41.3168 31.5339 43.7297 26.4152 44.6549C25.5843 44.8052 24.7417 44.8898 23.9038 45.0072H21.0913C20.5429 44.9391 19.9921 44.8804 19.4448 44.8017C14.9355 44.1559 10.9558 42.3442 7.56203 39.3043C3.69484 35.8405 1.27375 31.5442 0.347969 26.4248C0.197969 25.5935 0.113594 24.7493 -0.00359344 23.9109V21.0929C0.0643753 20.5434 0.120624 19.9927 0.200312 19.4491C0.903437 14.5587 2.95539 10.3152 6.42414 6.79389C10.6722 2.47883 15.8519 0.199764 21.9034 0.0177683C27.0187 -0.136048 31.6792 1.32462 35.789 4.37628C40.6031 7.95162 43.5738 12.7129 44.6507 18.6272C44.803 19.4373 44.8827 20.2663 44.9999 21.0906ZM2.1093 22.4514C2.08703 33.6788 11.2054 42.8491 22.432 42.8902C33.6585 42.9313 42.8624 33.788 42.8905 22.5418C42.9175 11.3191 33.7863 2.13597 22.5679 2.10427C11.3191 2.07256 2.13273 11.2099 2.1093 22.4514Z" fill="white"/>
<path d="M29.407 35.6336C27.3504 35.6019 25.5609 35.0066 23.8992 34.0908C18.0129 30.8583 13.4695 26.3014 10.5023 20.245C9.68907 18.5859 9.21328 16.8129 9.41367 14.9354C9.61758 13.0391 10.4449 11.5303 12.266 10.7201C13.2035 10.3045 14.141 9.89822 15.0973 9.53423C15.6905 9.29756 16.3491 9.2834 16.9519 9.49438C17.5548 9.70535 18.0613 10.1273 18.3785 10.6826C19.2137 12.0751 20.0266 13.481 20.8172 14.9002C21.5356 16.1918 21.143 17.7006 19.9137 18.5342C19.8047 18.6082 19.6898 18.6751 19.5832 18.7503C18.7242 19.3561 18.5496 20.3284 19.1883 21.1608C20.528 22.9065 22.0892 24.4696 23.8324 25.8106C24.7031 26.481 25.6992 26.2896 26.3145 25.3221C26.8137 24.5354 27.4617 24.0106 28.3981 23.8673C28.9923 23.7774 29.5994 23.8951 30.1172 24.2008C31.5152 24.998 32.9133 25.7941 34.2949 26.6196C35.4422 27.3041 35.9356 28.6156 35.4738 29.8497C35.0777 30.917 34.6348 31.9726 34.1355 32.9953C33.327 34.6532 31.8586 35.3542 30.1148 35.5914C29.8441 35.629 29.5641 35.6254 29.407 35.6336ZM28.9734 33.5201C30.9258 33.5659 31.8914 32.9612 32.5793 31.4066C32.8676 30.7515 33.1324 30.0845 33.3996 29.4199C33.634 28.8329 33.5566 28.6239 33.0082 28.3068C31.8051 27.6109 30.6016 26.9158 29.3977 26.2215C28.6688 25.8012 28.5129 25.8387 28.0465 26.5385C26.7574 28.4747 24.3715 28.8963 22.5387 27.4873C20.6572 26.0381 18.9702 24.3518 17.5195 22.47C17.0277 21.8621 16.7446 21.1115 16.7121 20.3295C16.657 18.8137 17.3379 17.6924 18.5871 16.8845C19.0934 16.5581 19.1801 16.3033 18.9117 15.8348C18.1582 14.5127 17.3883 13.1988 16.6336 11.8802C16.4133 11.4963 16.1027 11.3988 15.7043 11.5632C14.8945 11.8978 14.0895 12.2477 13.2762 12.5742C12.116 13.0438 11.6356 13.9702 11.5113 15.135C11.3484 16.6743 11.7844 18.1104 12.4488 19.456C15.1793 24.9804 19.343 29.1464 24.6914 32.1464C26.0859 32.919 27.5871 33.4614 28.9734 33.5166V33.5201Z" fill="white"/>
</g>
<defs>
<clipPath id="clip0_1_67">
<rect width="45" height="45" fill="white"/>
</clipPath>
</defs>
</svg>
